<?xml version="1.0" encoding="utf-8"?>
<!-- Generator: Adobe Illustrator 23.0.6, SVG Export Plug-In . SVG Version: 6.00 Build 0)  -->
<svg version="1.1" id="Layer_1" xmlns="http://www.w3.org/2000/svg" xmlns:xlink="http://www.w3.org/1999/xlink" x="0px" y="0px"
	 viewBox="0 0 190 160" style="enable-background:new 0 0 190 160;" xml:space="preserve">
<style type="text/css">
	.st0{fill:#0E0F0F;}
	.st1{fill:#EFE557;}
	.st2{fill:none;stroke:#0E0F0F;stroke-width:0.25;stroke-miterlimit:10;}
	.st3{fill:none;stroke:#FFFFFF;stroke-width:2;stroke-linecap:round;stroke-linejoin:bevel;stroke-miterlimit:10;}
	.st4{fill:none;stroke:#0E0F0F;stroke-width:0.25;stroke-linecap:round;stroke-linejoin:bevel;stroke-miterlimit:10;}
	.st5{fill:none;stroke:#FFFFFF;stroke-width:0.25;stroke-miterlimit:10;}
	.st6{fill:#61A861;}
	.st7{fill:#CF6887;}
	.st8{fill:none;stroke:#FFFFFF;stroke-miterlimit:10;}
	.st9{fill:none;stroke:#0E0F0F;stroke-width:0.5;stroke-miterlimit:10;}
</style>
<g id="head">
	<g id="XMLID_1_">
		<g>
			<path class="st0" d="M108.3,141.1c1,0,1.7-0.8,1.7-1.8c0-1-0.7-1.8-1.7-1.8c-1,0-1.7,0.8-1.7,1.8
				C106.5,140.2,107.3,141.1,108.3,141.1z M118.2,141.1c-1,0-1.9,0.8-1.9,1.8c0,1,0.9,1.8,1.9,1.8c1,0,1.7-0.8,1.7-1.8
				S119.1,141.1,118.2,141.1z M98,158.4c-61,1.5-86.5-41.1-75.6-88.2C3.8,66.9-0.1,18,2.9,7.6h2C20.1,13,34.2,25.9,60.9,33l0,0
				c20.3-4.3,48.7-6.3,71.9,0.5C148,27.1,166,14.4,183.7,4.2l2.5-0.8c4.2,11,7.7,64-20.1,65.2v1.6c20.1,46.1-7.6,87.6-68.4,88.2
				v-0.1H98z M100.1,72.4l4.2-4l-5.9-0.9l-2.6-5.1l-2.6,5.1l-5.7,0.9l4.2,4l-1,5.6l5.2-2.6l5.2,2.6L100.1,72.4z"/>
			<path class="st0" d="M118.2,141.1c1,0,1.7,0.8,1.7,1.8c0,1-0.9,1.8-1.7,1.8c-1,0-1.9-0.8-1.9-1.8S117.1,141.1,118.2,141.1z"/>
			<path class="st0" d="M108.3,137.6c1,0,1.7,0.8,1.7,1.8c0,1-0.7,1.8-1.7,1.8c-1,0-1.7-0.8-1.7-1.8
				C106.5,138.3,107.3,137.6,108.3,137.6z"/>
			<polygon class="st1" points="104.4,68.4 100.1,72.4 101.1,78 96,75.4 90.7,78 91.7,72.4 87.5,68.4 93.4,67.5 96,62.4 98.5,67.5 
							"/>
		</g>
		<g>
			<path class="st2" d="M22.4,70.3c-10.9,47,14.5,89.7,75.6,88.2c1,0,2.1,0,3.2-0.1"/>
			<path class="st2" d="M166.4,70.4c20.1,46.1-7.6,87.6-68.4,88.2c-0.4,0-0.6,0-1,0"/>
			<path class="st3" d="M30.6,68.9c-3,1.4-5.7,1.8-8.2,1.4C3.8,67-0.1,18.1,2.9,7.7c0.5-1.6,1.2-2.4,2-1.8"/>
			<path class="st3" d="M158.4,67.7c2.9,0.8,5.5,1,7.9,0.9c27.8-1,24.3-54.1,20.1-65.2c-0.5-1.3-1-2-1.4-2"/>
			<path class="st4" d="M61,33.2c20.3-4.3,48.7-6.3,71.9,0.5c7.1,2,13.7,4.9,19.5,8.8"/>
			<path class="st4" d="M34.2,43.4c2-3,12.4-7.3,26.8-10.3"/>
			<polygon class="st5" points="96,62.4 98.5,67.5 104.4,68.4 100.1,72.4 101.1,78 96,75.4 90.7,78 91.7,72.4 87.5,68.4 93.4,67.5 
							"/>
		</g>
	</g>
	<g id="XMLID_3_">
		<g>
			<path class="st0" d="M56.2,94.4c3.5,0,6.2,3.5,6.2,7.9s-2.7,7.9-6.2,7.9c-3.5,0-6.2-3.5-6.2-7.9S52.7,94.4,56.2,94.4z"/>
		</g>
	</g>
</g>
<g id="eyes">
	<ellipse class="st1" cx="59" cy="102.3" rx="17.3" ry="5.8"/>
	<path class="st6" d="M60.5,103.5c0,2.5-1.4,2.5-1.4,2.5s-1.4,0-1.4-2.5s1.4-4.5,1.4-4.5S60.5,101,60.5,103.5z"/>
	<ellipse class="st1" cx="131.7" cy="102.3" rx="17.3" ry="5.8"/>
	<path class="st6" d="M133.1,103.5c0,2.5-1.4,2.5-1.4,2.5s-1.4,0-1.4-2.5s1.4-4.5,1.4-4.5S133.1,101,133.1,103.5z"/>
	<path class="st7" d="M103.4,111.7c0,3.4-8.7,6.9-8.7,6.9s-8.7-3.6-8.7-6.9s4-1.1,8.7-1.1C99.4,110.6,103.4,108.5,103.4,111.7z"/>
	<path class="st8" d="M94.5,118.8c-1.1,3.1-1.1,7.1,1.5,8.3"/>
	<path class="st8" d="M82.4,126.9c0,0,11.7,0,30.8,0"/>
	<path class="st8" d="M114.2,120.1c-2.5,5.6,0.6,11.3,2,11.3"/>
	<ellipse class="st0" cx="93.1" cy="69.8" rx="1" ry="1"/>
	<ellipse class="st0" cx="98.1" cy="69.8" rx="1" ry="1"/>
	<path class="st9" d="M94,72.9c0,0,1.4,0,3.5,0"/>
	<path class="st9" d="M97.6,71.9c-0.2,1,0,1.9,0.1,1.9"/>
</g>
</svg>
