<?xml version="1.0" encoding="utf-8"?>
<!-- Generator: Adobe Illustrator 23.0.6, SVG Export Plug-In . SVG Version: 6.00 Build 0)  -->
<svg version="1.1" id="Layer_1" xmlns="http://www.w3.org/2000/svg" xmlns:xlink="http://www.w3.org/1999/xlink" x="0px" y="0px"
	 viewBox="0 0 190 160" style="enable-background:new 0 0 190 160;" xml:space="preserve">
<style type="text/css">
	.st0{fill:#F7EC46;}
	.st1{fill:none;stroke:#000000;stroke-width:0.25;stroke-miterlimit:10;}
	.st2{fill:none;stroke:#FFFFFF;stroke-width:2;stroke-linecap:round;stroke-linejoin:bevel;stroke-miterlimit:10;}
	.st3{fill:none;stroke:#000000;stroke-width:0.25;stroke-linecap:round;stroke-linejoin:bevel;stroke-miterlimit:10;}
	.st4{fill:none;stroke:#FFFFFF;stroke-width:0.25;stroke-miterlimit:10;}
	.st5{fill:#D86589;}
	.st6{fill:#5EAF61;}
	.st7{fill:#C8587F;}
	.st8{fill:#FFFFFF;}
</style>
<g id="XMLID_1_">
	<g>
		<path d="M109.5,138.9c0,1-0.8,1.8-1.8,1.8c-1,0-1.8-0.8-1.8-1.8c0-1,0.8-1.8,1.8-1.8C108.7,137.2,109.5,138,109.5,138.9z"/>
		<polygon class="st0" points="97.9,65.8 103.7,66.7 99.5,70.8 100.5,76.6 95.3,73.8 90.1,76.6 91.1,70.8 86.9,66.7 92.7,65.8 
			95.3,60.6 		"/>
		<path d="M117.6,140.7c1,0,1.8,0.8,1.8,1.8c0,1-0.8,1.8-1.8,1.8c-1,0-1.8-0.8-1.8-1.8C115.7,141.5,116.6,140.7,117.6,140.7z"/>
		<path d="M117.6,140.7c-1,0-1.8,0.8-1.8,1.8c0,1,0.8,1.8,1.8,1.8c1,0,1.8-0.8,1.8-1.8C119.4,141.5,118.6,140.7,117.6,140.7z
			 M107.7,140.7c1,0,1.8-0.8,1.8-1.8c0-1-0.8-1.8-1.8-1.8c-1,0-1.8,0.8-1.8,1.8C105.9,139.9,106.7,140.7,107.7,140.7z M21.4,68.6
			C2.8,65.2-1.2,15.5,1.9,4.9l2,0c15.3,5.5,29.5,18.6,56.3,25.9c20.4-4.4,48.8-6.4,72.2,0.5c15.4-6.5,33.4-19.5,51.1-29.9
			c4.4,0,13.4,64.8-17.7,65.6l0.1,1.7c20.1,47-7.7,89.3-68.7,89.8v-0.1C36,160,10.5,116.5,21.4,68.6z M99.5,70.8l4.2-4.1l-5.8-0.8
			l-2.6-5.3l-2.6,5.3l-5.8,0.8l4.2,4.1l-1,5.8l5.2-2.7l5.2,2.7L99.5,70.8z"/>
	</g>
	<g>
		<path class="st1" d="M21.4,68.6C10.5,116.5,36,160,97.3,158.4c1.1,0,2.1-0.1,3.2-0.1"/>
		<path class="st1" d="M166,68.7c20.1,47-7.7,89.3-68.7,89.8c-0.3,0-0.6,0-1,0"/>
		<path class="st2" d="M29.7,67.2c-3,1.4-5.8,1.8-8.3,1.4C2.8,65.2-1.2,15.5,1.9,4.9c0.5-1.7,1.2-2.4,2-1.8"/>
		<path class="st2" d="M158,66.1c2.9,0.8,5.5,1.1,7.9,1c31-0.8,22-65.6,17.7-65.6"/>
		<path class="st3" d="M33.3,41.3c2-3.1,12.5-7.4,26.9-10.5c20.4-4.4,48.8-6.4,72.2,0.5c7.1,2.1,13.7,5,19.6,8.9"/>
		<polygon class="st4" points="95.3,60.6 97.9,65.8 103.7,66.7 99.5,70.8 100.5,76.6 95.3,73.8 90.1,76.6 91.1,70.8 86.9,66.7 
			92.7,65.8 		"/>
	</g>
</g>
<path class="st0" d="M72,101.1c0,6.2-6.3,8.7-14,8.7s-14-2.5-14-8.7s6.3-11.3,14-11.3S72,94.9,72,101.1z"/>
<path class="st0" d="M145.2,101.1c0,6.2-6.3,8.7-14,8.7s-14-2.5-14-8.7s6.3-11.3,14-11.3S145.2,94.9,145.2,101.1z"/>
<path class="st5" d="M102.7,110.9c0,3.4-8.8,7-8.8,7s-8.8-3.6-8.8-7s4-1.1,8.8-1.1C98.7,109.8,102.7,107.5,102.7,110.9z"/>
<ellipse cx="92.4" cy="68.1" rx="1" ry="1.1"/>
<ellipse cx="97.5" cy="68.1" rx="1" ry="1.1"/>
<ellipse class="st6" cx="58" cy="101.1" rx="8.5" ry="8.7"/>
<ellipse class="st6" cx="131.2" cy="101.1" rx="8.5" ry="8.7"/>
<ellipse cx="58" cy="101.1" rx="5.8" ry="5.9"/>
<ellipse cx="131.2" cy="101.1" rx="5.8" ry="5.9"/>
<path class="st7" d="M99.4,124.9c-0.5,5.6-2.5,10.2-5.6,10.2s-5.6-4.5-5.6-10.2c0-3.2,1.5-4.3,4.5-4.3S99.7,121.7,99.4,124.9z"/>
<path class="st2" d="M93.9,118c0,4.2-7.2,7.6-16.2,7.6"/>
<path class="st2" d="M93.9,118c0,4.2,7,7.6,15.6,7.6"/>
<ellipse class="st8" cx="39" cy="115.8" rx="2.1" ry="2.1"/>
<ellipse class="st8" cx="153.9" cy="111.7" rx="1.8" ry="1.8"/>
<ellipse class="st8" cx="138.8" cy="123.7" rx="1.9" ry="1.9"/>
<ellipse class="st8" cx="151" cy="122.2" rx="1.5" ry="1.5"/>
<ellipse class="st8" cx="60.1" cy="115.8" rx="2.1" ry="2.1"/>
<ellipse class="st8" cx="48.1" cy="123.1" rx="1.4" ry="1.4"/>
<path d="M97.8,72.3c0,1.2-1.1,0.5-2.5,0.5s-2.5,0.7-2.5-0.5c0-1.2,1.1-2.2,2.5-2.2S97.8,71.1,97.8,72.3z"/>
</svg>
