<?xml version="1.0" encoding="utf-8"?>
<!-- Generator: Adobe Illustrator 23.0.6, SVG Export Plug-In . SVG Version: 6.00 Build 0)  -->
<svg version="1.1" xmlns="http://www.w3.org/2000/svg" xmlns:xlink="http://www.w3.org/1999/xlink" x="0px" y="0px"
	 viewBox="0 0 200 200" style="enable-background:new 0 0 200 200;" xml:space="preserve">
<style type="text/css">
	.st0{fill:#F7EC46;}
	.st1{fill:none;stroke:#000000;stroke-width:0.25;stroke-miterlimit:10;}
	.st2{fill:none;stroke:#FFFFFF;stroke-width:2;stroke-linecap:round;stroke-linejoin:bevel;stroke-miterlimit:10;}
	.st3{fill:none;stroke:#000000;stroke-width:0.25;stroke-linecap:round;stroke-linejoin:bevel;stroke-miterlimit:10;}
	.st4{fill:none;stroke:#FFFFFF;stroke-width:0.25;stroke-miterlimit:10;}
	.st5{fill:#60B061;}
	.st6{fill:#D86589;}
	.st7{fill:none;stroke:#FFFFFF;stroke-miterlimit:10;}
	.st8{fill:none;stroke:#000000;stroke-width:0.5;stroke-miterlimit:10;}
</style>
<g id="head">
	<g id="XMLID_1_">
		<g>
			<path d="M110.2,134c0.8,0,1.4-0.6,1.4-1.4c0-0.8-0.6-1.4-1.4-1.4c-0.8,0-1.4,0.6-1.4,1.4C108.7,133.3,109.4,134,110.2,134z
				 M118.1,134c-0.8,0-1.5,0.6-1.5,1.4c0,0.8,0.7,1.4,1.5,1.4c0.8,0,1.4-0.6,1.4-1.4C119.5,134.6,118.8,134,118.1,134z M101.9,147.8
				c-48.9,1.2-69.3-32.8-60.6-70.4c-14.9-2.6-18-41.6-15.6-49.9l1.6,0c12.2,4.3,23.5,14.6,44.9,20.3c0,0,0,0,0,0
				c16.3-3.4,39-5,57.6,0.4c12.2-5.1,26.6-15.3,40.8-23.4l2-0.6c3.4,8.8,6.2,51.1-16.1,52l0,1.3c16.1,36.8-6.1,69.9-54.8,70.4V147.8
				z M103.6,79.2L107,76l-4.7-0.7l-2.1-4.1l-2.1,4.1L93.5,76l3.4,3.2l-0.8,4.5l4.2-2.1l4.2,2.1L103.6,79.2z"/>
			<path d="M118.1,134c0.8,0,1.4,0.6,1.4,1.4c0,0.8-0.7,1.4-1.4,1.4c-0.8,0-1.5-0.6-1.5-1.4C116.6,134.6,117.2,134,118.1,134z"/>
			<path d="M110.2,131.2c0.8,0,1.4,0.6,1.4,1.4c0,0.8-0.6,1.4-1.4,1.4c-0.8,0-1.4-0.6-1.4-1.4C108.7,131.8,109.4,131.2,110.2,131.2z
				"/>
			<polygon class="st0" points="107,76 103.6,79.2 104.4,83.7 100.3,81.6 96.1,83.7 96.9,79.2 93.5,76 98.2,75.3 100.3,71.2 
				102.3,75.3 			"/>
		</g>
		<g>
			<path class="st1" d="M41.3,77.5c-8.7,37.5,11.6,71.6,60.6,70.4c0.8,0,1.7,0,2.6-0.1"/>
			<path class="st1" d="M156.7,77.6c16.1,36.8-6.1,69.9-54.8,70.4c-0.3,0-0.5,0-0.8,0"/>
			<path class="st2" d="M47.9,76.4c-2.4,1.1-4.6,1.4-6.6,1.1c-14.9-2.6-18-41.6-15.6-49.9c0.4-1.3,1-1.9,1.6-1.4"/>
			<path class="st2" d="M150.3,75.5c2.3,0.6,4.4,0.8,6.3,0.7c22.3-0.8,19.5-43.2,16.1-52c-0.4-1-0.8-1.6-1.1-1.6"/>
			<path class="st3" d="M72.3,47.9c16.3-3.4,39-5,57.6,0.4c5.7,1.6,11,3.9,15.6,7"/>
			<path class="st3" d="M50.8,56.1c1.6-2.4,9.9-5.8,21.5-8.2"/>
			<polygon class="st4" points="100.3,71.2 102.3,75.3 107,76 103.6,79.2 104.4,83.7 100.3,81.6 96.1,83.7 96.9,79.2 93.5,76 
				98.2,75.3 			"/>
		</g>
	</g>
	<g id="XMLID_3_">
		<g>
			<path d="M68.4,96.8c2.8,0,5,2.8,5,6.3s-2.2,6.3-5,6.3c-2.8,0-5-2.8-5-6.3S65.6,96.8,68.4,96.8z"/>
		</g>
		<g>
		</g>
	</g>
</g>
<g id="eyes">
	<ellipse class="st0" cx="70.7" cy="103.1" rx="13.9" ry="4.6"/>
	<path class="st5" d="M71.9,104c0,2-1.1,2-1.1,2s-1.1,0-1.1-2c0-2,1.1-3.6,1.1-3.6S71.9,102,71.9,104z"/>
	<ellipse class="st0" cx="128.9" cy="103.1" rx="13.9" ry="4.6"/>
	<path class="st5" d="M130,104c0,2-1.1,2-1.1,2s-1.1,0-1.1-2c0-2,1.1-3.6,1.1-3.6S130,102,130,104z"/>
	<path class="st6" d="M106.2,110.6c0,2.7-7,5.5-7,5.5s-7-2.9-7-5.5s3.2-0.9,7-0.9S106.2,108,106.2,110.6z"/>
	<path class="st7" d="M99.1,116.2c-0.9,2.5-0.9,5.7,1.2,6.6"/>
	<path class="st7" d="M89.4,122.7c0,0,9.4,0,24.7,0"/>
	<path class="st7" d="M114.9,117.3c-2,4.5,0.5,9,1.6,9"/>
	<circle cx="98" cy="77.1" r="0.8"/>
	<circle cx="102" cy="77.1" r="0.8"/>
	<path class="st8" d="M98.7,79.6c0,0,1.1,0,2.8,0"/>
	<path class="st8" d="M101.6,78.8c-0.2,0.8,0,1.5,0.1,1.5"/>
</g>
</svg>
